# AST/ASF file generated using VICON BodyLanguage
# -----------------------------------------------
:version 1.10
:name VICON
:units
  mass 1.0
  length 0.45
  angle deg
:documentation
   .ast/.asf automatically generated from VICON data using
   VICON BodyBuilder and BodyLanguage model FoxedUp or BRILLIANT.MOD
:root
   order TX TY TZ RX RY RZ
   axis XYZ
   position 0 0 0  
   orientation 0 0 0 
:bonedata
  begin
     id 1 
     name lhipjoint
     direction 0.630082 -0.636569 0.44472 
     length 2.82754 
     axis 0 0 0  XYZ
  end
  begin
     id 2 
     name lfemur
     direction 0.34202 -0.939693 0  
     length 7.26371  
     axis 0 0 20  XYZ
    dof rx ry rz
    limits (-160.0 20.0)
           (-70.0 70.0)
           (-60.0 70.0)
  end
  begin
     id 3 
     name ltibia
     direction 0.34202 -0.939693 0   
     length 7.88616   
     axis 0 0 20   XYZ
    dof rx
    limits (-10.0 170.0)
  end
  begin
     id 4 
     name lfoot
     direction 0.0603448 -0.165796 0.984312   
     length 1.77861   
     axis -90 7.62852e-016 20   XYZ
    dof rx rz
    limits (-45.0 90.0)
           (-70.0 20.0)
  end
  begin
     id 5 
     name ltoes
     direction 1.53577e-011 -4.21876e-011 1   
     length 0.902235   
     axis -90 7.62852e-016 20   XYZ
    dof rx
    limits (-90.0 20.0)
  end
  begin
     id 6 
     name rhipjoint
     direction -0.656778 -0.61817 0.431866   
     length 2.9117  
     axis 0 0 0  XYZ 
  end
  begin
     id 7 
     name rfemur
     direction -0.34202 -0.939693 0   
     length 6.81603   
     axis 0 0 -20   XYZ
    dof rx ry rz
    limits (-160.0 20.0)
           (-70.0 70.0)
           (-70.0 60.0)
  end
  begin
     id 8 
     name rtibia
     direction -0.34202 -0.939693 0   
     length 8.05997   
     axis 0 0 -20   XYZ
    dof rx
    limits (-10.0 170.0)
 end
 begin
     id 9 
     name rfoot
     direction -0.0862404 -0.236944 0.967688   
     length 1.84899  
     axis -90 -7.62852e-016 -20   XYZ
    dof rx rz
    limits (-45.0 90.0)
           (-20.0 70.0)
  end
  begin
     id 10 
     name rtoes
     direction -1.53561e-011 -4.21798e-011 1   
     length 0.931579   
     axis -90 -7.62852e-016 -20   XYZ
    dof rx
    limits (-90.0 20.0)
  end
  begin
     id 11 
     name lowerback
     direction -0.0110203 0.991769 -0.127564   
     length 2.05686   
     axis 0 0 0   XYZ
    dof rx ry rz
    limits (-20.0 45.0)
           (-30.0 30.0)
           (-30.0 30.0)
  end
  begin
     id 12 
     name upperback
     direction 0.0109719 0.99993 -0.00432479   
     length 2.06234   
     axis 0 0 0   XYZ
    dof rx ry rz
    limits (-20.0 45.0)
           (-30.0 30.0)
           (-30.0 30.0)
  end
  begin
     id 13 
     name thorax
     direction 0.0173308 0.998351 0.0547306   
     length 2.09856   
     axis 0 0 0   XYZ
    dof rx ry rz
    limits (-20.0 45.0)
           (-30.0 30.0)
           (-30.0 30.0)
  end
  begin
     id 14 
     name lowerneck
     direction -0.0311736 0.989033 0.144366   
     length 1.98151   
     axis 0 0 0   XYZ
    dof rx ry rz
    limits (-20.0 45.0)
           (-30.0 30.0)
           (-30.0 30.0)
  end
  begin
     id 15 
     name upperneck
     direction 0.0421057 0.975772 -0.214698   
     length 2.01457   
     axis 0 0 0   XYZ
    dof rx ry rz
    limits (-20.0 45.0)
           (-30.0 30.0)
           (-30.0 30.0)
  end
  begin
     id 16
     name head
     direction 0.0136911 0.995958 -0.0887718  
     length 2.03562  
     axis 0 0 0   XYZ
    dof rx ry rz
    limits (-20.0 45.0)
           (-30.0 30.0)
           (-30.0 30.0)
  end
  begin
     id 17 
     name lclavicle
     direction 0.915335 0.396201 0.0720134  
     length 4.16217  
     axis 0 0 0   XYZ
    dof ry rz
    limits (-20.0 10.0)
           (0.0 20.0)
  end
  begin
     id 18 
     name lhumerus
     direction 1 -4.48965e-011 6.383e-018   
     length 4.93042   
     axis -180 -30 -90   XYZ
    dof rx ry rz
    limits (-60.0 90.0)
           (-90.0 90.0)
           (-90.0 90.0)
  end
  begin
     id 19
     name lradius
     direction 1 -4.48972e-011 8.8689e-027   
     length 3.68177   
     axis -180 -30 -90   XYZ
    dof rx
    limits (-10.0 170.0)
  end
  begin
     id 20
     name lwrist
     direction 1 -4.48953e-011 1.17971e-026   
     length 1.84089   
     axis -7.69454e-015 90 90   XYZ
    dof ry
    limits (-180.0 0.0)
 end
  begin
     id 21 
     name lhand
     direction 1 -4.49027e-011 2.35802e-026   
     length 0.721479   
     axis -1.50533e-014 90 90   XYZ
    dof rx rz
    limits (-90.0 90.0)
           (-45.0 45.0)
  end
  begin
     id 22 
     name lfingers
     direction 1 -4.48915e-011 4.72027e-026   
     length 0.581675   
     axis -3.01059e-014 90 90   XYZ
    dof rx
    limits (0.0 90.0)
  end
  begin
     id 23
     name lthumb
     direction 0.707107 -6.34948e-011 0.707107   
     length 0.835172   
     axis -90 45 -5.12164e-014   XYZ
    dof rx rz
    limits (-45.0 45.0)
           (-45.0 45.0)
  end
  begin
     id 24 
     name rclavicle
     direction -0.882781 0.469197 0.0234974   
     length 3.95647  
     axis 0 0 0   XYZ 
    dof ry rz
    limits (-10.0 20.0)
           (-20.0 0.0)
  end
  begin
     id 25 
     name rhumerus
     direction -1 -4.48965e-011 -1.54906e-018  
     length 5.07905   
     axis -180 30 90   XYZ
    dof rx ry rz
    limits (-90.0 60.0)
           (-90.0 90.0)
           (-90.0 90.0)
  end
  begin
     id 26 
     name rradius
     direction -1 -4.48972e-011 5.47489e-027   
     length 3.54394   
     axis -180 30 90   XYZ
    dof rx
    limits (-10.0 170.0)
  end
  begin
     id 27 
     name rwrist
     direction -1 -4.48955e-011 1.17969e-026   
     length 1.77197   
     axis -7.69454e-015 -90 -90   XYZ
    dof ry
    limits (-180.0 0.0)
  end
  begin
     id 28
     name rhand
     direction -1 -4.48982e-011 2.35888e-026   
     length 0.681156   
     axis -1.50533e-014 -90 -90   XYZ
    dof rx rz
    limits (-90.0 90.0)
           (-45.0 45.0)
  end
  begin
     id 29
     name rfingers
     direction -1 -4.48955e-011 4.71877e-026   
     length 0.549165   
     axis -3.01059e-014 -90 -90   XYZ
    dof rx
    limits (0.0 90.0)
  end
  begin
     id 30
     name rthumb
     direction -0.707107 -6.3491e-011 0.707107   
     length 0.788495   
     axis -90 -45 5.12164e-014   XYZ
    dof rx rz
    limits (-45.0 45.0)
           (-45.0 45.0)
  end
:hierarchy
  begin
    root lhipjoint rhipjoint lowerback
    lhipjoint lfemur
    lfemur ltibia
    ltibia lfoot
    lfoot ltoes
    rhipjoint rfemur
    rfemur rtibia
    rtibia rfoot
    rfoot rtoes
    lowerback upperback
    upperback thorax
    thorax lowerneck lclavicle rclavicle
    lowerneck upperneck
    upperneck head
    lclavicle lhumerus
    lhumerus lradius
    lradius lwrist
    lwrist lhand lthumb
    lhand lfingers
    rclavicle rhumerus
    rhumerus rradius
    rradius rwrist
    rwrist rhand rthumb
    rhand rfingers
  end

#!OML:ASF H:\Bending\Project 1\Capture day 1\Session 1\Subject.ASF
:FULLY-SPECIFIED
:DEGREES
129
root -11.9508 17.7084 -16.7038 179.609 85.5542 156.381
lowerback 40.7093 -2.70867 0.933004
upperback 10.3906 -1.0626 3.10124
thorax -7.97161 0.0144306 3.17301
lowerneck -17.5164 -2.79481 -4.26457
upperneck 0.657183 -2.8059 1.69305
head 3.4288 -1.2886 1.10261
rclavicle -1.66979e-014 -7.7526e-015
rhumerus 17.9985 12.0804 -83.3898
rradius 45.3138
rwrist 2.56977
rhand -26.7494 -28.6523
rfingers 7.12502
rthumb -0.178061 -58.632
lclavicle -1.66979e-014 -7.7526e-015
lhumerus 16.9752 -22.1408 84.5953
lradius 53.6029
lwrist 33.1338
lhand -31.1095 22.1077
lfingers 7.12502
lthumb -4.38888 52.0423
rfemur -45.0312 -14.2566 15.5185
rtibia 34.9093
rfoot -12.4017 -9.90368
rtoes 4.11455
lfemur -49.2502 -1.69586 -13.7696
ltibia 38.2192
lfoot -10.8734 -3.31756
ltoes -8.95169
130
root -11.9114 17.7507 -16.7038 181.97 85.747 159.577
lowerback 39.7194 -2.59766 0.904979
upperback 10.1554 -1.03221 3.14965
thorax -7.9257 0.00589727 3.21852
lowerneck -17.645 -2.82954 -4.25131
upperneck 0.830311 -2.85452 1.74512
head 3.518 -1.31175 1.11288
rclavicle -4.13472e-014 9.54166e-015
rhumerus 15.8509 13.0818 -83.1928
rradius 46.0846
rwrist 2.1991
rhand -27.5251 -29.5128
rfingers 7.12502
rthumb -0.927231 -59.4905
lclavicle -4.13472e-014 9.54166e-015
lhumerus 14.5614 -23.0826 84.9765
lradius 54.8367
lwrist 33.2036
lhand -31.2751 22.1526
lfingers 7.12502
lthumb -4.54883 52.0837
rfemur -43.0424 -13.6003 15.3869
rtibia 33.4782
rfoot -12.2607 -10.229
rtoes 5.71154
lfemur -47.6672 -1.65034 -13.5138
ltibia 37.4165
lfoot -10.9434 -3.1288
ltoes -9.58953
131
root -11.8676 17.794 -16.7036 184.468 85.9551 162.869
lowerback 38.6863 -2.49437 0.873665
upperback 9.90466 -1.01528 3.19113
thorax -7.87154 -0.0097792 3.26356
lowerneck -18.0256 -2.85543 -4.27835
upperneck 1.49671 -2.87721 1.92223
head 3.37449 -1.3113 1.04975
rclavicle -1.51076e-014 -1.63003e-014
rhumerus 13.751 14.0681 -83.1061
rradius 46.8517
rwrist 2.0524
rhand -28.2808 -30.6078
rfingers 7.12502
rthumb -1.65709 -60.5811
lclavicle -1.51076e-014 -1.63003e-014
lhumerus 12.1386 -23.9566 85.3946
lradius 56.0836
lwrist 33.3263
lhand -31.4197 22.195
lfingers 7.12502
lthumb -4.68836 52.1232
rfemur -41.0478 -12.8955 15.2641
rtibia 31.971
rfoot -12.1152 -10.5683
rtoes 7.20146
lfemur -46.0799 -1.63386 -13.2376
ltibia 36.5709
lfoot -11.0132 -2.91864
ltoes -9.89886
132
root -11.819 17.8372 -16.7034 187.053 86.1547 166.227
lowerback 37.6173 -2.4159 0.843291
upperback 9.62474 -1.0312 3.22506
thorax -7.82417 -0.0416399 3.31281
lowerneck -18.1765 -2.83495 -4.3484
upperneck 1.74278 -2.84011 2.04177
head 3.47508 -1.28875 1.09806
rclavicle 2.26615e-014 6.55989e-015
rhumerus 11.651 15.1227 -83.0995
rradius 47.6487
rwrist 2.03534
rhand -28.8003 -31.7808
rfingers 7.12502
rthumb -2.15888 -61.7496
lclavicle 2.26615e-014 6.55989e-015
lhumerus 9.65513 -24.7405 85.8638
lradius 57.3234
lwrist 33.5068
lhand -31.5159 22.2411
lfingers 7.12502
lthumb -4.7813 52.1672
rfemur -39.0293 -12.185 15.1516
rtibia 30.3904
rfoot -11.9472 -10.9367
rtoes 8.33999
lfemur -44.4761 -1.69206 -12.9425
ltibia 35.691
lfoot -11.0923 -2.67939
ltoes -9.81279
133
root -11.7653 17.879 -16.7027 189.595 86.3305 169.534
lowerback 36.5191 -2.3702 0.817721
upperback 9.30889 -1.08853 3.2483
thorax -7.79167 -0.0936089 3.36365
lowerneck -18.2689 -2.77216 -4.4602
upperneck 2.00077 -2.74383 2.18963
head 3.56987 -1.23638 1.16741
rclavicle -8.34896e-015 -5.68524e-014
rhumerus 9.59201 16.2831 -83.191
rradius 48.393
rwrist 2.06754
rhand -28.9505 -32.8675
rfingers 7.12502
rthumb -2.3039 -62.8348
lclavicle -8.34896e-015 -5.68524e-014
lhumerus 7.08535 -25.4367 86.3889
lradius 58.5193
lwrist 33.7873
lhand -31.5102 22.2904
lfingers 7.12502
lthumb -4.77578 52.2165
rfemur -36.9752 -11.4901 15.0437
rtibia 28.7429
rfoot -11.739 -11.3584
rtoes 8.9883
lfemur -42.8482 -1.85585 -12.6368
ltibia 34.7852
lfoot -11.1929 -2.39825
ltoes -9.39143
134
root -11.7065 17.9191 -16.7015 191.943 86.4812 172.646
lowerback 35.3074 -2.34857 0.787984
upperback 9.04532 -1.18149 3.26752
thorax -7.77296 -0.162132 3.41086
lowerneck -18.3401 -2.68099 -4.59893
upperneck 2.29325 -2.6077 2.35296
head 3.6713 -1.16438 1.24958
rclavicle 1.15295e-014 -1.05356e-014
rhumerus 7.57025 17.5496 -83.3896
rradius 49.0484
rwrist 2.05552
rhand -28.7452 -33.7889
rfingers 7.12502
rthumb -2.10566 -63.7583
lclavicle 1.15295e-014 -1.05356e-014
lhumerus 4.44055 -26.0675 86.9717
lradius 59.626
lwrist 34.2468
lhand -31.3502 22.3293
lfingers 7.12502
lthumb -4.62128 52.2589
rfemur -34.8845 -10.7826 14.9244
rtibia 27.0392
rfoot -11.4827 -11.8798
rtoes 9.14006
lfemur -41.1959 -2.13066 -12.3342
ltibia 33.8601
lfoot -11.326 -2.06068
ltoes -8.80712
135
root -11.6428 17.957 -16.6995 194.041 86.6186 175.502
lowerback 34.1521 -2.3365 0.765831
upperback 8.6671 -1.28269 3.27536
thorax -7.76079 -0.23599 3.45703
lowerneck -18.4614 -2.58679 -4.74725
upperneck 2.66513 -2.46422 2.5067
head 3.80438 -1.08999 1.33071
rclavicle 7.95139e-015 2.04748e-014
rhumerus 5.58238 18.8756 -83.6987
rradius 49.5833
rwrist 1.93745
rhand -28.3436 -34.5877
rfingers 7.12502
rthumb -1.71775 -64.5605
lclavicle 7.95139e-015 2.04748e-014
lhumerus 1.76049 -26.6617 87.6269
lradius 60.6027
lwrist 34.9707
lhand -31.0165 22.3359
lfingers 7.12502
lthumb -4.29907 52.2722
rfemur -32.7746 -10.0511 14.7941
rtibia 25.2956
rfoot -11.1722 -12.4993
rtoes 8.86407
lfemur -39.5286 -2.49821 -12.047
ltibia 32.925
lfoot -11.4967 -1.65406
ltoes -8.28263
136
root -11.5745 17.9921 -16.697 195.987 86.7601 178.197
lowerback 32.9674 -2.30526 0.732534
upperback 8.26417 -1.36235 3.29259
thorax -7.7502 -0.300324 3.50971
lowerneck -18.6944 -2.51559 -4.89223
upperneck 3.16954 -2.34604 2.62279
head 3.99567 -1.03097 1.39681
rclavicle -4.57205e-014 -4.17448e-014
rhumerus 3.60024 20.1855 -84.1079
rradius 50.0056
rwrist 1.69273
rhand -27.9807 -35.3906
rfingers 7.12502
rthumb -1.36727 -65.3659
lclavicle -4.57205e-014 -4.17448e-014
lhumerus -0.909103 -27.2411 88.3811
lradius 61.4261
lwrist 36.0074
lhand -30.5432 22.2932
lfingers 7.12502
lthumb -3.84199 52.2383
rfemur -30.6591 -9.28239 14.6601
rtibia 23.5202
rfoot -10.8059 -13.193
rtoes 8.2894
lfemur -37.8562 -2.92877 -11.7803
ltibia 31.9909
lfoot -11.7033 -1.17115
ltoes -8.00796
137
root -11.502 18.0246 -16.6943 198.015 86.9207 180.966
lowerback 31.6151 -2.38565 1.0053
upperback 8.12916 -1.51981 2.93935
thorax -8.0187 -0.380234 3.25799
lowerneck -19.0347 -2.45366 -4.87883
upperneck 3.9249 -2.29019 2.85527
head 4.28433 -0.995021 1.46814
rclavicle 3.18055e-015 4.39314e-014
rhumerus 1.42024 21.2103 -85.1165
rradius 50.3137
rwrist 1.4886
rhand -27.875 -36.3091
rfingers 7.12502
rthumb -1.26517 -66.2851
lclavicle 3.18055e-015 4.39314e-014
lhumerus -3.68139 -27.9475 88.9293
lradius 62.1405
lwrist 37.3786
lhand -30.0169 22.21
lfingers 7.12502
lthumb -3.33382 52.1636
rfemur -28.5439 -8.46123 14.5309
rtibia 21.7235
rfoot -10.3981 -13.9279
rtoes 7.58612
lfemur -36.1854 -3.39576 -11.5315
ltibia 31.0769
lfoot -11.9436 -0.614298
ltoes -8.06865
138
root -11.4252 18.0541 -16.6917 200.574 87.1295 184.3
lowerback 30.6065 -2.43303 1.35995
upperback 7.5483 -1.61163 2.6839
thorax -8.22319 -0.458252 2.77992
lowerneck -19.4686 -2.43455 -4.82906
upperneck 4.87472 -2.30111 3.05518
head 4.65127 -0.992658 1.51739
rclavicle -1.88845e-014 -3.79679e-014
rhumerus -2.03759 21.9832 -86.2906
rradius 51.7578
rwrist 1.28865
rhand -28.1233 -37.3951
rfingers 7.12502
rthumb -1.505 -67.3695
lclavicle -1.88845e-014 -3.79679e-014
lhumerus -6.42533 -28.6852 89.5605
lradius 62.7449
lwrist 38.9386
lhand -29.5506 22.0948
lfingers 7.12502
lthumb -2.88347 52.0551
rfemur -26.3759 -7.5655 14.4155
rtibia 19.8844
rfoot -9.95815 -14.6575
rtoes 6.92164
lfemur -34.4595 -3.87408 -11.2937
ltibia 30.1799
lfoot -12.2143 0.0128649
ltoes -8.43074
139
root -11.3456 18.0831 -16.682 205.531 87.5051 189.837
lowerback 29.2948 -2.18917 1.27757
upperback 6.92778 -1.45649 2.67478
thorax -8.30295 -0.420407 2.73656
lowerneck -19.7949 -2.46222 -4.86036
upperneck 5.89296 -2.34418 3.0574
head 5.02474 -1.02218 1.51492
rclavicle -4.17448e-015 2.127e-014
rhumerus -5.096 22.6753 -87.1449
rradius 52.8406
rwrist 0.98218
rhand -28.6534 -38.6261
rfingers 7.12502
rthumb -2.01701 -68.5964
lclavicle -4.17448e-015 2.127e-014
lhumerus -9.12886 -29.3192 90.6113
lradius 63.2605
lwrist 40.478
lhand -29.2411 21.9548
lfingers 7.12502
lthumb -2.58457 51.9189
rfemur -24.4344 -6.43543 14.3703
rtibia 17.9811
rfoot -9.45564 -15.4046
rtoes 6.47181
lfemur -32.904 -4.14782 -11.0287
ltibia 29.3024
lfoot -12.4821 0.65363
ltoes -8.94983
140
root -11.258 18.1092 -16.67 211.386 87.8294 196.484
lowerback 27.9921 -1.95516 1.20088
upperback 6.46452 -1.29116 2.64815
thorax -8.19438 -0.371212 2.66551
lowerneck -20.2376 -2.52434 -4.88348
upperneck 6.96716 -2.42834 3.05732
head 5.43802 -1.07014 1.5056
rclavicle -1.66979e-014 3.4191e-014
rhumerus -7.62743 23.1845 -87.8936
rradius 53.6876
rwrist 0.627717
rhand -29.2934 -39.8318
rfingers 7.12502
rthumb -2.63509 -69.7953
lclavicle -1.66979e-014 3.4191e-014
lhumerus -11.5553 -29.9761 91.5901
lradius 63.7567
lwrist 41.8909
lhand -29.1332 21.8062
lfingers 7.12502
lthumb -2.48037 51.7716
rfemur -22.1589 -5.23995 14.3032
rtibia 15.9933
rfoot -9.01595 -16.1725
rtoes 6.3767
lfemur -31.0875 -4.48381 -10.8063
ltibia 28.4442
lfoot -12.7929 1.24956
ltoes -9.4639
141
root -11.1643 18.1296 -16.6584 217.402 88.0789 203.477
lowerback 26.7712 -1.75499 1.14487
upperback 6.10215 -1.14548 2.60123
thorax -8.00022 -0.326171 2.57011
lowerneck -20.7071 -2.59947 -4.90171
upperneck 8.05405 -2.52922 3.06048
head 5.86343 -1.12467 1.49438
rclavicle -1.82882e-014 -1.43125e-014
rhumerus -10.0038 23.52 -88.597
rradius 54.6124
rwrist 0.304191
rhand -29.8396 -40.8002
rfingers 7.12502
rthumb -3.16254 -70.7564
lclavicle -1.82882e-014 -1.43125e-014
lhumerus -13.8109 -30.647 92.5162
lradius 64.2976
lwrist 43.0543
lhand -29.1962 21.6463
lfingers 7.12502
lthumb -2.54115 51.6109
rfemur -19.5874 -4.05527 14.2184
rtibia 13.9152
rfoot -8.62401 -16.9265
rtoes 6.65186
lfemur -29.0698 -4.91093 -10.6515
ltibia 27.6169
lfoot -13.1398 1.78931
ltoes -9.84388
142
root -11.0677 18.1434 -16.6485 223.501 88.2818 210.58
lowerback 25.5929 -1.58335 1.1012
upperback 5.73912 -1.02607 2.53481
thorax -7.81727 -0.29189 2.45955
lowerneck -21.1041 -2.66596 -4.91558
upperneck 9.11693 -2.62405 3.07533
head 6.2732 -1.17467 1.48712
rclavicle -1.94809e-014 -4.77083e-014
rhumerus -12.3638 23.7656 -89.2807
rradius 55.684
rwrist -0.0238067
rhand -30.1392 -41.3947
rfingers 7.12502
rthumb -3.45189 -71.3465
lclavicle -1.94809e-014 -4.77083e-014
lhumerus -16.0395 -31.3028 93.4299
lradius 64.934
lwrist 43.9254
lhand -29.3413 21.4683
lfingers 7.12502
lthumb -2.68134 51.4311
rfemur -16.9072 -2.93153 14.1365
rtibia 11.7121
rfoot -8.20585 -17.6255
rtoes 7.22259
lfemur -27.0443 -5.37557 -10.5665
ltibia 26.8265
lfoot -13.4986 2.27787
ltoes -10.0533
143
root -10.9692 18.1513 -16.6409 228.848 88.4302 216.884
lowerback 24.4082 -1.45645 1.07377
upperback 5.35694 -0.956059 2.45859
thorax -7.64115 -0.280508 2.34767
lowerneck -21.3985 -2.71455 -4.93887
upperneck 10.0999 -2.69885 3.11387
head 6.6438 -1.21258 1.49207
rclavicle 9.34288e-015 4.77083e-015
rhumerus -14.7485 23.9831 -89.9476
rradius 56.9436
rwrist -0.370912
rhand -30.1491 -41.5995
rfingers 7.12502
rthumb -3.46145 -71.5511
lclavicle 9.34288e-015 4.77083e-015
lhumerus -18.2504 -31.8954 94.3295
lradius 65.682
lwrist 44.5487
lhand -29.4632 21.2626
lfingers 7.12502
lthumb -2.79904 51.224
rfemur -14.1823 -2.57023 14.2282
rtibia 9.33254
rfoot -7.68225 -17.6013
rtoes 7.98245
lfemur -25.1225 -5.86506 -10.5475
ltibia 26.1029
lfoot -13.8664 2.71478
ltoes -10.1473
